<svg width="49" height="49" viewBox="0 0 49 49" fill="none" xmlns="http://www.w3.org/2000/svg">
<path d="M39.5 39C39.5 39.4374 39.291 39.9944 38.6177 40.6499C37.9397 41.31 36.8805 41.9736 35.4497 42.5627C32.5951 43.7382 28.5478 44.5 24 44.5C19.4522 44.5 15.4049 43.7382 12.5503 42.5627C11.1195 41.9736 10.0603 41.31 9.38228 40.6499C8.70898 39.9944 8.5 39.4374 8.5 39C8.5 38.5626 8.70898 38.0056 9.38228 37.3501C10.0603 36.69 11.1195 36.0264 12.5503 35.4373C15.4049 34.2618 19.4522 33.5 24 33.5C28.5478 33.5 32.5951 34.2618 35.4497 35.4373C36.8805 36.0264 37.9397 36.69 38.6177 37.3501C39.291 38.0056 39.5 38.5626 39.5 39Z" stroke="#152C5B" stroke-width="3"/>
<path d="M35.5 13.1734C35.5 16.5551 34.1103 23.0639 31.8025 28.7509C30.6533 31.5828 29.3172 34.1068 27.8883 35.8951C26.419 37.7341 25.095 38.5 24 38.5C22.905 38.5 21.581 37.7341 20.1117 35.8951C18.6828 34.1068 17.3467 31.5828 16.1975 28.7509C13.8897 23.0639 12.5 16.5551 12.5 13.1734C12.5 6.70755 17.6674 1.5 24 1.5C30.3326 1.5 35.5 6.70755 35.5 13.1734Z" fill="white" stroke="#152C5B" stroke-width="3"/>
<circle cx="24" cy="13" r="4.5" fill="white" stroke="#2B4CDE" stroke-width="3"/>
</svg>
