<svg width="46" height="42" viewBox="0 0 46 42" fill="none" xmlns="http://www.w3.org/2000/svg">
<path d="M11.9757 7.53362L11.926 0.033844L11.979 8.0336" stroke="#2B4CDE" stroke-width="3" stroke-linecap="round"/>
<path d="M9.19721 16L22.5 5.88444L35.8027 16H9.19721Z" stroke="#152C5B" stroke-width="3"/>
<path d="M6.42603 18.5339H38.426V39.5339H6.42603V18.5339Z" stroke="#152C5B" stroke-width="3"/>
<path d="M19.426 33.0339C19.426 31.6532 20.5453 30.5339 21.926 30.5339H23.926C25.3067 30.5339 26.426 31.6532 26.426 33.0339V40.5339H19.426V33.0339Z" fill="#152C5B" stroke="#152C5B"/>
<path d="M18.426 24.0339C18.426 22.6532 19.5453 21.5339 20.926 21.5339H23.926C25.3067 21.5339 26.426 22.6532 26.426 24.0339V25.0339C26.426 26.4146 25.3067 27.5339 23.926 27.5339H20.926C19.5453 27.5339 18.426 26.4146 18.426 25.0339V24.0339Z" fill="#152C5B" stroke="#152C5B"/>
<rect y="16.8069" width="27.8615" height="2.17504" transform="rotate(-36.7841 0 16.8069)" fill="#152C5B"/>
<rect width="28.6962" height="2.17504" transform="matrix(-0.802186 -0.597074 -0.597074 0.802186 45.3184 17.1338)" fill="#152C5B"/>
</svg>
