<svg width="48" height="48" viewBox="0 0 48 48" fill="none" xmlns="http://www.w3.org/2000/svg">
<rect width="48" height="48" fill="white"/>
<path d="M23.0489 10.9271C23.3483 10.0057 24.6517 10.0057 24.9511 10.9271L27.8167 19.7467C27.9506 20.1587 28.3346 20.4377 28.7678 20.4377H38.0413C39.0101 20.4377 39.4128 21.6773 38.6291 22.2467L31.1267 27.6976C30.7762 27.9522 30.6295 28.4036 30.7634 28.8156L33.6291 37.6353C33.9284 38.5566 32.874 39.3227 32.0902 38.7533L24.5878 33.3024C24.2373 33.0478 23.7627 33.0478 23.4122 33.3024L15.9098 38.7533C15.1261 39.3227 14.0716 38.5566 14.3709 37.6353L17.2366 28.8156C17.3705 28.4036 17.2238 27.9522 16.8733 27.6976L9.37088 22.2467C8.58717 21.6773 8.98994 20.4377 9.95867 20.4377H19.2322C19.6654 20.4377 20.0494 20.1587 20.1833 19.7467L23.0489 10.9271Z" fill="#FBC847"/>
</svg>
