<svg width="32" height="29" viewBox="0 0 32 29" fill="none" xmlns="http://www.w3.org/2000/svg">
<path d="M15.0489 0.92693C15.3483 0.00561953 16.6517 0.00561786 16.9511 0.926929L19.8167 9.74659C19.9506 10.1586 20.3346 10.4376 20.7678 10.4376H30.0413C31.0101 10.4376 31.4128 11.6772 30.6291 12.2466L23.1267 17.6974C22.7762 17.9521 22.6295 18.4035 22.7634 18.8155L25.6291 27.6351C25.9284 28.5564 24.874 29.3226 24.0902 28.7532L16.5878 23.3023C16.2373 23.0477 15.7627 23.0477 15.4122 23.3023L7.90976 28.7532C7.12605 29.3226 6.07157 28.5564 6.37092 27.6351L9.2366 18.8155C9.37048 18.4035 9.22382 17.9521 8.87333 17.6974L1.37088 12.2466C0.587169 11.6772 0.989944 10.4376 1.95867 10.4376H11.2322C11.6654 10.4376 12.0494 10.1586 12.1833 9.74659L15.0489 0.92693Z" fill="#FBC847"/>
</svg>
