<svg width="49" height="49" viewBox="0 0 49 49" fill="none" xmlns="http://www.w3.org/2000/svg">
<mask id="path-1-inside-1_11_122" fill="white">
<path fill-rule="evenodd" clip-rule="evenodd" d="M33 10H16L13.8571 16H6C2.68629 16 0 18.6863 0 22V42C0 45.3137 2.68629 48 6 48H42C45.3137 48 48 45.3137 48 42V22C48 18.6863 45.3137 16 42 16H35.1429L33 10Z"/>
</mask>
<path d="M16 10V7H13.8858L13.1748 8.99099L16 10ZM33 10L35.8252 8.99099L35.1142 7H33V10ZM13.8571 16V19H15.9713L16.6824 17.009L13.8571 16ZM35.1429 16L32.3176 17.009L33.0287 19H35.1429V16ZM16 13H33V7H16V13ZM16.6824 17.009L18.8252 11.009L13.1748 8.99099L11.0319 14.991L16.6824 17.009ZM6 19H13.8571V13H6V19ZM3 22C3 20.3431 4.34315 19 6 19V13C1.02944 13 -3 17.0294 -3 22H3ZM3 42V22H-3V42H3ZM6 45C4.34315 45 3 43.6569 3 42H-3C-3 46.9706 1.02944 51 6 51V45ZM42 45H6V51H42V45ZM45 42C45 43.6569 43.6569 45 42 45V51C46.9706 51 51 46.9706 51 42H45ZM45 22V42H51V22H45ZM42 19C43.6569 19 45 20.3431 45 22H51C51 17.0294 46.9706 13 42 13V19ZM35.1429 19H42V13H35.1429V19ZM30.1748 11.009L32.3176 17.009L37.9681 14.991L35.8252 8.99099L30.1748 11.009Z" fill="#152C5B" mask="url(#path-1-inside-1_11_122)"/>
<circle cx="24" cy="32" r="6.5" stroke="#2B4CDE" stroke-width="3"/>
<path d="M40.5 22H33H41" stroke="#152C5B" stroke-width="3" stroke-linecap="round"/>
</svg>
