<svg width="33" height="48" viewBox="0 0 33 48" fill="none" xmlns="http://www.w3.org/2000/svg">
<path d="M0 15.5185C0 12.2048 2.68629 9.51852 6 9.51852H18.8C22.1137 9.51852 24.8 12.2048 24.8 15.5185V18.1111H0V15.5185Z" fill="#152C5B"/>
<path d="M31 43.7193C31 30.1423 31 22.5302 31 8.95322M31 8.95322V46.037M31 8.95322L28.4524 5.38192C27.6918 4.31555 26.603 3.52741 25.3524 3.13782L23.7359 2.63424C22.419 2.22398 21.0009 2.28 19.7205 2.79287L18.4041 3.32009C17.7141 3.59649 17.0813 3.99873 16.5382 4.50631L14.7048 6.21973C14.0051 6.87368 13.4721 7.68563 13.1504 8.58771L12.4 10.6915" stroke="#152C5B" stroke-width="3" stroke-linecap="round"/>
<ellipse cx="3.72" cy="24.5555" rx="3.72" ry="3.22222" fill="#2B4CDE"/>
<ellipse cx="21.08" cy="24.5555" rx="3.72" ry="3.22222" fill="#2B4CDE"/>
<ellipse cx="12.4" cy="34.2222" rx="3.72" ry="3.22222" fill="#2B4CDE"/>
</svg>
