<svg width="48" height="34" viewBox="0 0 48 34" fill="none" xmlns="http://www.w3.org/2000/svg">
<path d="M5.51133 3.20941C5.85161 2.18856 6.80696 1.49999 7.88304 1.49999H40.117C41.193 1.49999 42.1484 2.18856 42.4887 3.20942L44.822 10.2094C45.3616 11.8282 44.1567 13.5 42.4503 13.5H5.54971C3.84331 13.5 2.63839 11.8282 3.178 10.2094L5.51133 3.20941Z" fill="white" stroke="#152C5B" stroke-width="3"/>
<path d="M9.62526 5.29166C9.88639 4.80423 10.3945 4.49999 10.9475 4.49999H37.0525C37.6055 4.49999 38.1136 4.80423 38.3747 5.29166L38.8117 5.05756L38.3747 5.29166L39.9819 8.29166C40.5172 9.29091 39.7933 10.5 38.6597 10.5H9.34034C8.20674 10.5 7.48281 9.29091 8.01812 8.29166L9.62526 5.29166Z" fill="white" stroke="#2B4CDE"/>
<path d="M5.5 13.5H10.5V30C10.5 31.3807 9.38071 32.5 8 32.5C6.61929 32.5 5.5 31.3807 5.5 30V13.5Z" stroke="#152C5B" stroke-width="3"/>
<path d="M37.5 13.5H42.5V30C42.5 31.3807 41.3807 32.5 40 32.5C38.6193 32.5 37.5 31.3807 37.5 30V13.5Z" stroke="#152C5B" stroke-width="3"/>
</svg>
